<svg width="22" height="19" viewBox="0 0 22 19" fill="none" xmlns="http://www.w3.org/2000/svg">
<path d="M15.625 0C13.5742 0 11.791 0.924805 10.7422 2.47461C9.69336 0.924805 7.91016 0 5.85938 0C4.30593 0.00180919 2.81662 0.619715 1.71817 1.71817C0.619715 2.81662 0.00180919 4.30593 0 5.85938C0 8.71094 1.77734 11.6787 5.2832 14.6787C6.8897 16.0476 8.62501 17.2577 10.4648 18.292C10.5501 18.3378 10.6454 18.3618 10.7422 18.3618C10.839 18.3618 10.9343 18.3378 11.0195 18.292C12.8594 17.2577 14.5947 16.0476 16.2012 14.6787C19.707 11.6787 21.4844 8.71094 21.4844 5.85938C21.4826 4.30593 20.8647 2.81662 19.7662 1.71817C18.6678 0.619715 17.1784 0.00180919 15.625 0ZM10.7422 17.1006C9.13965 16.1758 1.17188 11.3008 1.17188 5.85938C1.17317 4.61657 1.66744 3.42504 2.54624 2.54624C3.42504 1.66744 4.61657 1.17317 5.85938 1.17188C7.83984 1.17188 9.50293 2.22949 10.2002 3.93262C10.2443 4.04008 10.3194 4.132 10.4159 4.19669C10.5124 4.26138 10.626 4.29592 10.7422 4.29592C10.8584 4.29592 10.9719 4.26138 11.0684 4.19669C11.1649 4.132 11.24 4.04008 11.2842 3.93262C11.9814 2.22949 13.6445 1.17188 15.625 1.17188C16.8678 1.17317 18.0593 1.66744 18.9381 2.54624C19.8169 3.42504 20.3112 4.61657 20.3125 5.85938C20.3125 11.3008 12.3447 16.1758 10.7422 17.1006Z" fill="#EE10B0"/>
</svg>
