<svg width="12" height="12" viewBox="0 0 12 12" fill="none" xmlns="http://www.w3.org/2000/svg">
<path d="M11.875 0V7.8125C11.875 8.39266 11.6445 8.94906 11.2343 9.3593C10.8241 9.76953 10.2677 10 9.6875 10C9.10734 10 8.55094 9.76953 8.1407 9.3593C7.73047 8.94906 7.5 8.39266 7.5 7.8125C7.5 7.23234 7.73047 6.67594 8.1407 6.2657C8.55094 5.85547 9.10734 5.625 9.6875 5.625C10.025 5.625 10.3438 5.7 10.625 5.8375V2.16875L4.375 3.5V9.0625C4.375 9.64266 4.14453 10.1991 3.7343 10.6093C3.32406 11.0195 2.76766 11.25 2.1875 11.25C1.60734 11.25 1.05094 11.0195 0.640704 10.6093C0.230468 10.1991 0 9.64266 0 9.0625C0 8.48234 0.230468 7.92594 0.640704 7.5157C1.05094 7.10547 1.60734 6.875 2.1875 6.875C2.525 6.875 2.84375 6.95 3.125 7.0875V1.875L11.875 0Z" fill="#EE10B0"/>
</svg>
